<svg xmlns="http://www.w3.org/2000/svg" xmlns:xlink="http://www.w3.org/1999/xlink" viewBox="0 0 687.63 709.02"><defs><style>.a{fill:url(#a);}.b{fill:url(#b);}</style><linearGradient id="a" x1="931.04" y1="281.6" x2="219.75" y2="692.27" gradientUnits="userSpaceOnUse"><stop offset="0.03" stop-color="#0079bd"/><stop offset="0.98" stop-color="#00a5b3"/></linearGradient><linearGradient id="b" x1="367.94" y1="170.54" x2="320.11" y2="198.16" xlink:href="#a"/></defs><path class="a" d="M829.74,122.88S713.17,104,713.17,203.38C713.17,298.53,713,420,713,587c0,0-146.82,264.17-389.58,21.4,0,0,199.06,26.57,319.05-173.4,83.23-138.72,34.68-277.44,34.68-277.44S441.33,11.91,247.12,220C49,432.29,163.89,691.64,323.42,761,414.49,800.59,542,854,713,740c8.25,21,33.51,83.42,116.74,76.49V122.88ZM267.93,483.56s0-298.25,305.18-249.7c0,0,6.94,90.17-20.81,117.91-34.68,34.68-83.23,55.49-159.52-6.93,0,0-6.94,0,0,6.93s55.48,69.36,117.91,69.36C510.69,421.13,427.46,525.17,267.93,483.56Z" transform="translate(-142.12 -108)"/><circle class="b" cx="344.03" cy="184.35" r="27.61"/></svg>