<svg xmlns="http://www.w3.org/2000/svg" viewBox="0 0 818.74 243.15"><defs><style>.a{font-size:169.97px;font-family:Poppins-Medium, Poppins;font-weight:500;}.a,.b{fill:#fff;}</style></defs><text class="a" transform="translate(110.81 144.22)">quaBlue</text><path class="b" d="M189,396.26s-17.3-2.76-17.15,11.84C172,422,172,440,172,465c0,0-21.77,38.38-57.47,2.67,0,0,29.28,3.91,46.93-25.5a51.85,51.85,0,0,0,5.1-40.81s-34.69-21.42-63.25,9.18c-29.15,31.23-12.25,69.38,11.22,79.58C127.92,495.94,154,505,172,487c1.21,3.09,4.76,12.3,17,11.28v-102Zm-82.63,53.05s0-43.87,44.88-36.73c0,0,1,13.27-3.06,17.35-5.1,5.1-12.24,8.16-23.46-1,0,0-1,0,0,1s8.16,10.2,17.34,10.2C142.07,440.13,129.83,455.43,106.37,449.31Z" transform="translate(-87.86 -349.37)"/><circle class="b" cx="50.6" cy="71.81" r="4.06"/></svg>